<svg xmlns="http://www.w3.org/2000/svg" width="600" height="190" viewBox="0 0 600 190" font-family="ui-sans-serif, -apple-system, 'Segoe UI', Roboto, sans-serif">
  <rect x="1" y="1" width="598" height="188" rx="14" fill="#0E141C" stroke="#22303F"/>
  <rect x="0" y="30" width="5" height="130" rx="2.5" fill="#E8A33D"/>
  <g transform="translate(80,88) scale(1.7)" fill="none" stroke="#E8A33D" stroke-width="2.5" stroke-linecap="round" stroke-linejoin="round">
    <path d="M-30 12 H30"/>
    <path d="M-30 12 v-8 h11 l9 -10 h19 l13 10 h8 v8"/>
    <circle cx="-16" cy="12" r="6" fill="#0E141C"/>
    <circle cx="16" cy="12" r="6" fill="#0E141C"/>
  </g>
  <text x="152" y="58" fill="#F0F6FC" font-size="22" font-weight="700">Cars Manager</text>
  <text x="576" y="42" text-anchor="end" fill="#E8A33D" font-size="11" font-family="ui-monospace, Menlo, Consolas, monospace" letter-spacing="1">● PUBLIC</text>
  <g fill="#8B98A9" font-size="14.5">
    <text x="152" y="90">Blueprint-styled PWA for fuel, costs &amp; maintenance —</text>
    <text x="152" y="112">every number measured, never guessed.</text>
  </g>
  <g font-family="ui-monospace, Menlo, Consolas, monospace" font-size="12" fill="#8B98A9">
    <rect x="152" y="130" width="95" height="26" rx="13" fill="none" stroke="#22303F"/>
    <text x="199" y="147" text-anchor="middle">Vanilla JS</text>
    <rect x="257" y="130" width="80" height="26" rx="13" fill="none" stroke="#22303F"/>
    <text x="297" y="147" text-anchor="middle">Supabase</text>
    <rect x="347" y="130" width="46" height="26" rx="13" fill="none" stroke="#22303F"/>
    <text x="370" y="147" text-anchor="middle">PWA</text>
    <rect x="403" y="130" width="80" height="26" rx="13" fill="none" stroke="#22303F"/>
    <text x="443" y="147" text-anchor="middle">24 tests</text>
  </g>
  <text x="574" y="168" text-anchor="end" fill="#E8A33D" font-size="18">↗</text>
</svg>
